<svg width="1440" height="1024" viewBox="0 0 1440 1024" fill="none" xmlns="http://www.w3.org/2000/svg">
<g opacity="0.6">
<ellipse opacity="0.2" cx="81.3961" cy="873.438" rx="65.0186" ry="65.0568" transform="rotate(-20 81.3961 873.438)" stroke="#F9804B"/>
<path opacity="0.2" fill-rule="evenodd" clip-rule="evenodd" d="M15.9663 982.165C71.2968 1015.43 143.091 997.537 176.323 942.194C209.554 886.851 191.64 815.018 136.309 781.75C80.9786 748.483 9.1846 766.378 -24.0472 821.721C-57.2789 877.064 -39.3643 948.897 15.9663 982.165Z" stroke="#C26EEF" stroke-linecap="round" stroke-dasharray="112 448"/>
</g>
<g opacity="0.1">
<ellipse cx="971.033" cy="-93.4569" rx="311.57" ry="311.487" fill="black"/>
<ellipse cx="971.033" cy="-93.4569" rx="311.57" ry="311.487" fill="url(#paint0_linear_1_29)"/>
</g>
<g opacity="0.1">
<path fill-rule="evenodd" clip-rule="evenodd" d="M-162.985 395.486L317.236 220.7C355.042 206.94 394.124 204.235 430.96 210.945C467.795 217.654 502.384 233.778 531.202 257.672C560.021 281.567 583.07 313.234 596.827 351.03C610.584 388.825 613.282 427.899 606.564 464.728C599.847 501.557 583.715 536.141 559.81 564.958C535.905 593.775 504.228 616.825 466.422 630.585L-13.7986 805.372C-51.6046 819.132 -90.6866 821.836 -127.522 815.127C-164.357 808.417 -198.946 792.294 -227.765 768.399C-256.584 744.504 -279.633 712.838 -293.389 675.042C-307.146 637.246 -309.844 598.172 -303.127 561.343C-296.41 524.514 -280.277 489.93 -256.372 461.113C-232.468 432.296 -200.791 409.246 -162.985 395.486Z" fill="black"/>
<path fill-rule="evenodd" clip-rule="evenodd" d="M-162.985 395.486L317.236 220.7C355.042 206.94 394.124 204.235 430.96 210.945C467.795 217.654 502.384 233.778 531.202 257.672C560.021 281.567 583.07 313.234 596.827 351.03C610.584 388.825 613.282 427.899 606.564 464.728C599.847 501.557 583.715 536.141 559.81 564.958C535.905 593.775 504.228 616.825 466.422 630.585L-13.7986 805.372C-51.6046 819.132 -90.6866 821.836 -127.522 815.127C-164.357 808.417 -198.946 792.294 -227.765 768.399C-256.584 744.504 -279.633 712.838 -293.389 675.042C-307.146 637.246 -309.844 598.172 -303.127 561.343C-296.41 524.514 -280.277 489.93 -256.372 461.113C-232.468 432.296 -200.791 409.246 -162.985 395.486Z" fill="url(#paint1_linear_1_29)"/>
</g>
<path opacity="0.1" fill-rule="evenodd" clip-rule="evenodd" d="M1021.99 432.801L1382.18 301.627C1410.57 291.288 1439.89 289.245 1467.52 294.274C1495.15 299.303 1521.08 311.403 1542.69 329.348C1564.3 347.293 1581.59 371.083 1591.92 399.491C1602.26 427.899 1604.3 457.241 1599.27 484.886C1594.25 512.531 1582.15 538.479 1564.22 560.102C1546.28 581.724 1522.51 599.02 1494.12 609.36L1133.93 740.534C1105.54 750.873 1076.22 752.916 1048.59 747.887C1020.96 742.858 995.024 730.758 973.414 712.813C951.805 694.868 934.519 671.079 924.185 642.67C913.852 614.262 911.811 584.92 916.837 557.275C921.862 529.63 933.955 503.682 951.89 482.059C969.824 460.437 993.6 443.141 1021.99 432.801Z" fill="url(#paint2_linear_1_29)"/>
<path opacity="0.1" fill-rule="evenodd" clip-rule="evenodd" d="M-488.153 262.467L-127.967 131.293C-99.5752 120.953 -70.2507 118.911 -42.6219 123.94C-14.993 128.969 10.9403 141.069 32.5498 159.013C54.1594 176.958 71.4451 200.748 81.7788 229.156C92.1126 257.565 94.1537 286.906 89.1278 314.551C84.1019 342.196 72.009 368.145 54.0747 389.767C36.1404 411.389 12.3645 428.685 -16.0271 439.025L-376.213 570.199C-404.605 580.539 -433.929 582.581 -461.558 577.552C-489.187 572.524 -515.121 560.424 -536.73 542.479C-558.34 524.534 -575.625 500.744 -585.959 472.336C-596.293 443.927 -598.334 414.586 -593.308 386.941C-588.282 359.296 -576.189 333.347 -558.255 311.725C-540.321 290.103 -516.545 272.807 -488.153 262.467Z" fill="url(#paint3_linear_1_29)"/>
<g opacity="0.2">
<path fill-rule="evenodd" clip-rule="evenodd" d="M1383 233.5C1383 237.679 1386.54 241 1391 241C1395.46 241 1399 237.679 1399 233.5C1399 229.321 1395.46 226 1391 226C1386.54 226 1383 229.321 1383 233.5ZM1385.29 233.5C1385.29 230.5 1387.8 228.143 1391 228.143C1394.2 228.143 1396.71 230.607 1396.71 233.5C1396.71 236.5 1394.2 238.857 1391 238.857C1387.8 238.857 1385.29 236.5 1385.29 233.5Z" fill="white"/>
</g>
<defs>
<linearGradient id="paint0_linear_1_29" x1="1164.84" y1="-473.714" x2="638.425" y2="-45.0274" gradientUnits="userSpaceOnUse">
<stop stop-color="#7E77FF"/>
<stop offset="1" stop-color="white" stop-opacity="0.1"/>
</linearGradient>
<linearGradient id="paint1_linear_1_29" x1="600.867" y1="134.948" x2="14.4651" y2="636.822" gradientUnits="userSpaceOnUse">
<stop stop-color="#7E77FF"/>
<stop offset="1" stop-color="white" stop-opacity="0.1"/>
</linearGradient>
<linearGradient id="paint2_linear_1_29" x1="1469.02" y1="332.691" x2="1194.49" y2="577.326" gradientUnits="userSpaceOnUse">
<stop stop-color="#7E77FF"/>
<stop offset="1" stop-color="white" stop-opacity="0.01"/>
</linearGradient>
<linearGradient id="paint3_linear_1_29" x1="84.7737" y1="66.9866" x2="-355.266" y2="443.378" gradientUnits="userSpaceOnUse">
<stop stop-color="#7E77FF"/>
<stop offset="1" stop-color="white" stop-opacity="0.1"/>
</linearGradient>
</defs>
</svg>
